P2
4 4 255
92 80 205 0
170 32 164 43
25 164 0 36
75 0 87 26